<?xml version="1.0" encoding="UTF-8" standalone="no"?>
<!-- Created with Inkscape (http://www.inkscape.org/) -->

<svg
   xmlns:ns1="http://www.iki.fi/pav/software/textext/"
   xmlns:osb="http://www.openswatchbook.org/uri/2009/osb"
   xmlns:dc="http://purl.org/dc/elements/1.1/"
   xmlns:cc="http://creativecommons.org/ns#"
   xmlns:rdf="http://www.w3.org/1999/02/22-rdf-syntax-ns#"
   xmlns:svg="http://www.w3.org/2000/svg"
   xmlns="http://www.w3.org/2000/svg"
   xmlns:sodipodi="http://sodipodi.sourceforge.net/DTD/sodipodi-0.dtd"
   xmlns:inkscape="http://www.inkscape.org/namespaces/inkscape"
   width="210mm"
   height="297mm"
   viewBox="0 0 210 297"
   version="1.1"
   id="svg8"
   inkscape:version="0.92.4 (unknown)"
   sodipodi:docname="boundary_part.svg">
  <defs
     id="defs2">
    <marker
       inkscape:stockid="Arrow1Lend"
       orient="auto"
       refY="0.0"
       refX="0.0"
       id="marker1382"
       style="overflow:visible;"
       inkscape:isstock="true">
      <path
         id="path1380"
         d="M 0.0,0.0 L 5.0,-5.0 L -12.5,0.0 L 5.0,5.0 L 0.0,0.0 z "
         style="fill-rule:evenodd;stroke:#000000;stroke-width:1pt;stroke-opacity:1;fill:#000000;fill-opacity:1"
         transform="scale(0.8) rotate(180) translate(12.5,0)" />
    </marker>
    <marker
       inkscape:stockid="Arrow1Lstart"
       orient="auto"
       refY="0.0"
       refX="0.0"
       id="marker1378"
       style="overflow:visible"
       inkscape:isstock="true">
      <path
         id="path1376"
         d="M 0.0,0.0 L 5.0,-5.0 L -12.5,0.0 L 5.0,5.0 L 0.0,0.0 z "
         style="fill-rule:evenodd;stroke:#000000;stroke-width:1pt;stroke-opacity:1;fill:#000000;fill-opacity:1"
         transform="scale(0.8) translate(12.5,0)" />
    </marker>
    <marker
       inkscape:stockid="Arrow1Lend"
       orient="auto"
       refY="0.0"
       refX="0.0"
       id="Arrow1Lend"
       style="overflow:visible;"
       inkscape:isstock="true">
      <path
         id="path1022"
         d="M 0.0,0.0 L 5.0,-5.0 L -12.5,0.0 L 5.0,5.0 L 0.0,0.0 z "
         style="fill-rule:evenodd;stroke:#000000;stroke-width:1pt;stroke-opacity:1;fill:#000000;fill-opacity:1"
         transform="scale(0.8) rotate(180) translate(12.5,0)" />
    </marker>
    <marker
       inkscape:stockid="Arrow1Lstart"
       orient="auto"
       refY="0.0"
       refX="0.0"
       id="Arrow1Lstart"
       style="overflow:visible"
       inkscape:isstock="true">
      <path
         id="path1019"
         d="M 0.0,0.0 L 5.0,-5.0 L -12.5,0.0 L 5.0,5.0 L 0.0,0.0 z "
         style="fill-rule:evenodd;stroke:#000000;stroke-width:1pt;stroke-opacity:1;fill:#000000;fill-opacity:1"
         transform="scale(0.8) translate(12.5,0)" />
    </marker>
    <linearGradient
       id="linearGradient970"
       osb:paint="solid">
      <stop
         style="stop-color:#212cd5;stop-opacity:1;"
         offset="0"
         id="stop968" />
    </linearGradient>
    <linearGradient
       osb:paint="gradient"
       id="linearGradient834">
      <stop
         id="stop830"
         offset="0"
         style="stop-color:#000000;stop-opacity:1;" />
      <stop
         id="stop832"
         offset="1"
         style="stop-color:#000000;stop-opacity:0;" />
    </linearGradient>
    <marker
       inkscape:stockid="Arrow1Lstart"
       orient="auto"
       refY="0"
       refX="0"
       id="marker1378-3"
       style="overflow:visible"
       inkscape:isstock="true">
      <path
         inkscape:connector-curvature="0"
         id="path1376-2"
         d="M 0,0 5,-5 -12.5,0 5,5 Z"
         style="fill:#000000;fill-opacity:1;fill-rule:evenodd;stroke:#000000;stroke-width:1.00000003pt;stroke-opacity:1"
         transform="matrix(0.8,0,0,0.8,10,0)" />
    </marker>
    <marker
       inkscape:stockid="Arrow1Lend"
       orient="auto"
       refY="0"
       refX="0"
       id="marker1382-8"
       style="overflow:visible"
       inkscape:isstock="true">
      <path
         inkscape:connector-curvature="0"
         id="path1380-0"
         d="M 0,0 5,-5 -12.5,0 5,5 Z"
         style="fill:#000000;fill-opacity:1;fill-rule:evenodd;stroke:#000000;stroke-width:1.00000003pt;stroke-opacity:1"
         transform="matrix(-0.8,0,0,-0.8,-10,0)" />
    </marker>
  </defs>
  <sodipodi:namedview
     id="base"
     pagecolor="#ffffff"
     bordercolor="#666666"
     borderopacity="1.0"
     inkscape:pageopacity="0.0"
     inkscape:pageshadow="2"
     inkscape:zoom="0.69078947"
     inkscape:cx="302.11552"
     inkscape:cy="839.35238"
     inkscape:document-units="mm"
     inkscape:current-layer="layer1"
     showgrid="true"
     inkscape:window-width="1920"
     inkscape:window-height="1016"
     inkscape:window-x="0"
     inkscape:window-y="27"
     inkscape:window-maximized="1">
    <inkscape:grid
       type="xygrid"
       id="grid815" />
  </sodipodi:namedview>
  <metadata
     id="metadata5">
    <rdf:RDF>
      <cc:Work
         rdf:about="">
        <dc:format>image/svg+xml</dc:format>
        <dc:type
           rdf:resource="http://purl.org/dc/dcmitype/StillImage" />
        <dc:title></dc:title>
      </cc:Work>
    </rdf:RDF>
  </metadata>
  <g
     inkscape:label="Layer 1"
     inkscape:groupmode="layer"
     id="layer1">
    <rect
       style="fill:#eeeeee;fill-opacity:1;fill-rule:nonzero;stroke:#ef5760;stroke-width:1.5;stroke-miterlimit:4;stroke-dasharray:none;stroke-opacity:1;paint-order:markers fill stroke"
       id="rect944"
       width="105.83333"
       height="52.916664"
       x="52.916668"
       y="43" />
    <g
       id="g996"
       ns1:jacobian_sqrt="0.352778"
       ns1:alignment="middle center"
       ns1:scale="1.0"
       ns1:preamble="/home/a.brugnoli/.config/inkscape/extensions/textext/advanced_packages.tex"
       ns1:text="$\\Gamma_N$"
       ns1:pdfconverter="pdf2svg"
       ns1:texconverter="pdflatex"
       ns1:version="0.9.1"
       transform="matrix(1.3555197,0,0,1.5798167,-103.60649,-120.41212)"
       style="stroke-width:0.24107115">
      <g
         id="g994"
         style="stroke-width:0.24107115">
        <g
           id="g988"
           style="fill:#000000;fill-opacity:1;stroke-width:0.24107115">
          <path
             id="path986"
             transform="translate(148.712,134.765)"
             d="m 5.515625,-6.78125 h -5.1875 v 0.3125 H 0.5625 c 0.765625,0 0.796875,0.109375 0.796875,0.46875 v 5.21875 c 0,0.359375 -0.03125,0.46875 -0.796875,0.46875 H 0.328125 V 0 c 0.34375,-0.03125 1.125,-0.03125 1.515625,-0.03125 0.40625,0 1.3125,0 1.671875,0.03125 V -0.3125 H 3.1875 C 2.25,-0.3125 2.25,-0.4375 2.25,-0.78125 v -5.296875 c 0,-0.328125 0.015625,-0.390625 0.484375,-0.390625 h 1.03125 c 1.421875,0 1.625,0.59375 1.78125,1.9375 h 0.25 z m 0,0"
             style="stroke:none;stroke-width:0"
             inkscape:connector-curvature="0" />
        </g>
        <g
           id="g992"
           style="fill:#000000;fill-opacity:1;stroke-width:0.24107115">
          <path
             id="path990"
             transform="translate(154.939,136.259)"
             d="M 5.8125,-4 C 5.875,-4.265625 6,-4.5 6.546875,-4.515625 c 0.03125,0 0.140625,0 0.140625,-0.140625 0,-0.046875 -0.03125,-0.109375 -0.109375,-0.109375 -0.21875,0 -0.484375,0.03125 -0.71875,0.03125 -0.171875,0 -0.5625,-0.03125 -0.734375,-0.03125 -0.03125,0 -0.140625,0 -0.140625,0.15625 0,0.09375 0.09375,0.09375 0.15625,0.09375 0.328125,0.015625 0.4375,0.125 0.4375,0.296875 0,0.046875 0,0.09375 -0.03125,0.15625 l -0.75,3.046875 -1.765625,-3.625 c -0.0625,-0.125 -0.078125,-0.125 -0.25,-0.125 H 1.828125 c -0.125,0 -0.21875,0 -0.21875,0.15625 0,0.09375 0.078125,0.09375 0.234375,0.09375 0.140625,0 0.296875,0.015625 0.4375,0.046875 L 1.359375,-0.75 c -0.0625,0.265625 -0.1875,0.484375 -0.734375,0.5 -0.046875,0 -0.140625,0 -0.140625,0.140625 C 0.484375,-0.03125 0.53125,0 0.578125,0 0.8125,0 1.078125,-0.03125 1.3125,-0.03125 1.484375,-0.03125 1.875,0 2.046875,0 2.125,0 2.1875,-0.03125 2.1875,-0.140625 2.1875,-0.25 2.109375,-0.25 2.03125,-0.25 c -0.4375,-0.015625 -0.4375,-0.203125 -0.4375,-0.296875 0,-0.03125 0,-0.0625 0.015625,-0.171875 l 0.90625,-3.5625 2.03125,4.15625 C 4.59375,0 4.625,0 4.703125,0 4.8125,0 4.8125,-0.015625 4.84375,-0.140625 Z m 0,0"
             style="stroke:none;stroke-width:0"
             inkscape:connector-curvature="0" />
        </g>
      </g>
    </g>
    <g
       id="g1128"
       ns1:jacobian_sqrt="0.352778"
       ns1:alignment="middle center"
       ns1:scale="1.0"
       ns1:preamble="/home/a.brugnoli/.config/inkscape/extensions/textext/advanced_packages.tex"
       ns1:text="$\\Gamma_D$"
       ns1:pdfconverter="pdf2svg"
       ns1:texconverter="pdflatex"
       ns1:version="0.9.1"
       transform="matrix(1.3107261,0,0,1.5259499,-96.3578,-150.43851)"
       style="stroke-width:0.24944533">
      <g
         id="g1126"
         style="stroke-width:0.24944533">
        <g
           id="g1120"
           style="fill:#000000;fill-opacity:1;stroke-width:0.24944533">
          <path
             id="path1118"
             transform="translate(148.712,134.765)"
             d="m 5.515625,-6.78125 h -5.1875 v 0.3125 H 0.5625 c 0.765625,0 0.796875,0.109375 0.796875,0.46875 v 5.21875 c 0,0.359375 -0.03125,0.46875 -0.796875,0.46875 H 0.328125 V 0 c 0.34375,-0.03125 1.125,-0.03125 1.515625,-0.03125 0.40625,0 1.3125,0 1.671875,0.03125 V -0.3125 H 3.1875 C 2.25,-0.3125 2.25,-0.4375 2.25,-0.78125 v -5.296875 c 0,-0.328125 0.015625,-0.390625 0.484375,-0.390625 h 1.03125 c 1.421875,0 1.625,0.59375 1.78125,1.9375 h 0.25 z m 0,0"
             style="stroke:none;stroke-width:0"
             inkscape:connector-curvature="0" />
        </g>
        <g
           id="g1124"
           style="fill:#000000;fill-opacity:1;stroke-width:0.24944533">
          <path
             id="path1122"
             transform="translate(154.939,136.259)"
             d="M 1.3125,-0.546875 C 1.265625,-0.3125 1.25,-0.25 0.703125,-0.25 0.578125,-0.25 0.5,-0.25 0.5,-0.09375 0.5,0 0.578125,0 0.703125,0 H 3.1875 c 1.546875,0 3.03125,-1.421875 3.03125,-2.9375 0,-1.015625 -0.703125,-1.828125 -1.828125,-1.828125 H 1.84375 c -0.140625,0 -0.21875,0 -0.21875,0.15625 0,0.09375 0.078125,0.09375 0.234375,0.09375 0.109375,0 0.140625,0 0.265625,0.015625 0.140625,0.015625 0.140625,0.03125 0.140625,0.109375 0,0 0,0.046875 -0.015625,0.140625 z m 1.5625,-3.71875 c 0.0625,-0.21875 0.0625,-0.25 0.359375,-0.25 H 4.125 c 0.78125,0 1.4375,0.390625 1.4375,1.34375 0,0.15625 -0.078125,1.359375 -0.765625,2.15625 C 4.515625,-0.703125 3.921875,-0.25 3.0625,-0.25 H 2.125 c -0.21875,0 -0.234375,-0.015625 -0.234375,-0.078125 0,0 0,-0.03125 0.03125,-0.140625 z m 0,0"
             style="stroke:none;stroke-width:0"
             inkscape:connector-curvature="0" />
        </g>
      </g>
    </g>
    <path
       style="fill:none;stroke:#78cbdd;stroke-width:1.5;stroke-linecap:butt;stroke-linejoin:miter;stroke-opacity:1;stroke-miterlimit:4;stroke-dasharray:none"
       d="M 52.916666,43.000001 H 158.75"
       id="path974"
       inkscape:connector-curvature="0" />
    <path
       style="fill:none;stroke:#000000;stroke-width:0.26458332px;stroke-linecap:butt;stroke-linejoin:miter;stroke-opacity:1;marker-start:url(#Arrow1Lstart);marker-end:url(#Arrow1Lend)"
       d="m 47.624999,69.458334 v 31.749996 l 31.750001,0"
       id="path1014"
       inkscape:connector-curvature="0" />
    <g
       id="g1318"
       ns1:jacobian_sqrt="0.352778"
       inkscapeversion="0.92.4"
       ns1:alignment="middle center"
       ns1:scale="1.0"
       ns1:preamble="/home/a.brugnoli/.config/inkscape/extensions/textext/advanced_packages.tex"
       ns1:text="$x$"
       ns1:pdfconverter="pdf2svg"
       ns1:texconverter="pdflatex"
       ns1:version="0.9.1"
       transform="matrix(1.3595589,0,0,0.98678987,-118.66318,-28.939391)"
       style="stroke-width:0.30457211">
      <g
         id="surface1"
         style="stroke-width:0.30457211">
        <g
           id="g1315"
           style="fill:#000000;fill-opacity:1;stroke-width:0.30457211">
          <path
             id="path1313"
             transform="translate(148.712,134.765)"
             d="M 3.328125,-3.015625 C 3.390625,-3.265625 3.625,-4.1875 4.3125,-4.1875 c 0.046875,0 0.296875,0 0.5,0.125 C 4.53125,-4 4.34375,-3.765625 4.34375,-3.515625 c 0,0.15625 0.109375,0.34375 0.375,0.34375 0.21875,0 0.53125,-0.171875 0.53125,-0.578125 0,-0.515625 -0.578125,-0.65625 -0.921875,-0.65625 -0.578125,0 -0.921875,0.53125 -1.046875,0.75 -0.25,-0.65625 -0.78125,-0.75 -1.078125,-0.75 -1.03125,0 -1.609375,1.28125 -1.609375,1.53125 0,0.109375 0.109375,0.109375 0.125,0.109375 0.078125,0 0.109375,-0.03125 0.125,-0.109375 0.34375,-1.0625 1,-1.3125 1.34375,-1.3125 0.1875,0 0.53125,0.09375 0.53125,0.671875 0,0.3125 -0.171875,0.96875 -0.53125,2.375 -0.15625,0.609375 -0.515625,1.03125 -0.953125,1.03125 -0.0625,0 -0.28125,0 -0.5,-0.125 0.25,-0.0625 0.46875,-0.265625 0.46875,-0.546875 0,-0.265625 -0.21875,-0.34375 -0.359375,-0.34375 -0.3125,0 -0.546875,0.25 -0.546875,0.578125 0,0.453125 0.484375,0.65625 0.921875,0.65625 0.671875,0 1.03125,-0.703125 1.046875,-0.75 0.125,0.359375 0.484375,0.75 1.078125,0.75 1.03125,0 1.59375,-1.28125 1.59375,-1.53125 0,-0.109375 -0.078125,-0.109375 -0.109375,-0.109375 -0.09375,0 -0.109375,0.046875 -0.140625,0.109375 -0.328125,1.078125 -1,1.3125 -1.3125,1.3125 -0.390625,0 -0.546875,-0.3125 -0.546875,-0.65625 0,-0.21875 0.046875,-0.4375 0.15625,-0.875 z m 0,0"
             style="stroke:none;stroke-width:0"
             inkscape:connector-curvature="0" />
        </g>
      </g>
    </g>
    <g
       id="g1365"
       ns1:jacobian_sqrt="0.352778"
       inkscapeversion="0.92.4"
       ns1:alignment="middle center"
       ns1:scale="1.0"
       ns1:preamble="/home/a.brugnoli/.config/inkscape/extensions/textext/advanced_packages.tex"
       ns1:text="$r$"
       ns1:pdfconverter="pdf2svg"
       ns1:texconverter="pdflatex"
       ns1:version="0.9.1"
       transform="matrix(0.95939264,0,0,1.0436199,-98.825807,-72.237069)"
       style="stroke-width:0.35255924">
      <g
         id="g1363"
         style="stroke-width:0.35255924">
        <g
           id="g1361"
           style="fill:#000000;fill-opacity:1;stroke-width:0.35255924">
          <path
             id="path1359"
             transform="translate(148.712,134.765)"
             d="m 0.875,-0.59375 c -0.03125,0.15625 -0.09375,0.390625 -0.09375,0.4375 0,0.171875 0.140625,0.265625 0.296875,0.265625 0.125,0 0.296875,-0.078125 0.375,-0.28125 C 1.46875,-0.203125 1.796875,-1.5625 1.84375,-1.75 c 0.078125,-0.328125 0.265625,-1.015625 0.3125,-1.296875 0.046875,-0.125 0.328125,-0.59375 0.5625,-0.8125 0.078125,-0.0625 0.375,-0.328125 0.796875,-0.328125 0.265625,0 0.40625,0.125 0.421875,0.125 -0.296875,0.046875 -0.515625,0.28125 -0.515625,0.546875 0,0.15625 0.109375,0.34375 0.375,0.34375 0.265625,0 0.546875,-0.234375 0.546875,-0.59375 0,-0.34375 -0.3125,-0.640625 -0.828125,-0.640625 C 2.875,-4.40625 2.4375,-3.921875 2.25,-3.640625 2.15625,-4.09375 1.796875,-4.40625 1.328125,-4.40625 0.875,-4.40625 0.6875,-4.015625 0.59375,-3.84375 0.421875,-3.5 0.296875,-2.90625 0.296875,-2.875 c 0,0.109375 0.09375,0.109375 0.109375,0.109375 0.109375,0 0.109375,-0.015625 0.171875,-0.234375 0.171875,-0.703125 0.375,-1.1875 0.734375,-1.1875 0.15625,0 0.296875,0.078125 0.296875,0.453125 0,0.21875 -0.03125,0.328125 -0.15625,0.84375 z m 0,0"
             style="stroke:none;stroke-width:0"
             inkscape:connector-curvature="0" />
        </g>
      </g>
    </g>
    <path
       style="fill:none;stroke:#000000;stroke-width:0.26458332px;stroke-linecap:butt;stroke-linejoin:miter;stroke-opacity:1;marker-start:url(#marker1378);marker-end:url(#marker1382)"
       d="M 52.916666,37.708324 H 158.75"
       id="path1374"
       inkscape:connector-curvature="0" />
    <path
       style="fill:none;stroke:#000000;stroke-width:0.26458332px;stroke-linecap:butt;stroke-linejoin:miter;stroke-opacity:1;marker-start:url(#marker1378-3);marker-end:url(#marker1382-8)"
       d="m 164.04164,42.999992 3e-5,52.916666"
       id="path1374-3"
       inkscape:connector-curvature="0" />
    <g
       id="g1463"
       ns1:jacobian_sqrt="0.352778"
       inkscapeversion="0.92.4"
       ns1:alignment="middle center"
       ns1:scale="1.0"
       ns1:preamble="/home/a.brugnoli/.config/inkscape/extensions/textext/advanced_packages.tex"
       ns1:text="R"
       ns1:pdfconverter="pdf2svg"
       ns1:texconverter="pdflatex"
       ns1:version="0.9.1"
       transform="matrix(1.3078027,0,0,1.1756669,-28.074743,-85.104398)"
       style="stroke-width:0.28450382">
      <g
         id="g1461"
         style="stroke-width:0.28450382">
        <g
           id="g1459"
           style="fill:#000000;fill-opacity:1;stroke-width:0.28450382">
          <path
             id="path1457"
             transform="translate(148.712,134.765)"
             d="M 2.234375,-3.515625 V -6.09375 c 0,-0.234375 0,-0.359375 0.21875,-0.390625 C 2.546875,-6.5 2.84375,-6.5 3.046875,-6.5 c 0.890625,0 2,0.046875 2,1.484375 0,0.6875 -0.234375,1.5 -1.703125,1.5 z m 2.109375,0.125 C 5.296875,-3.625 6.078125,-4.234375 6.078125,-5.015625 6.078125,-5.96875 4.9375,-6.8125 3.484375,-6.8125 H 0.34375 V -6.5 h 0.25 c 0.765625,0 0.78125,0.109375 0.78125,0.46875 v 5.25 c 0,0.359375 -0.015625,0.46875 -0.78125,0.46875 h -0.25 V 0 c 0.359375,-0.03125 1.078125,-0.03125 1.453125,-0.03125 0.390625,0 1.109375,0 1.46875,0.03125 v -0.3125 h -0.25 c -0.765625,0 -0.78125,-0.109375 -0.78125,-0.46875 V -3.296875 H 3.375 c 0.15625,0 0.578125,0 0.9375,0.34375 0.375,0.34375 0.375,0.65625 0.375,1.328125 0,0.640625 0,1.046875 0.40625,1.421875 0.40625,0.359375 0.953125,0.421875 1.25,0.421875 0.78125,0 0.953125,-0.8125 0.953125,-1.09375 0,-0.0625 0,-0.171875 -0.125,-0.171875 -0.109375,0 -0.109375,0.09375 -0.125,0.15625 C 6.984375,-0.171875 6.640625,0 6.390625,0 5.90625,0 5.828125,-0.515625 5.6875,-1.4375 L 5.546875,-2.234375 C 5.375,-2.875 4.890625,-3.203125 4.34375,-3.390625 Z m 0,0"
             style="stroke:none;stroke-width:0"
             inkscape:connector-curvature="0" />
        </g>
      </g>
    </g>
    <g
       id="g1528"
       ns1:jacobian_sqrt="0.352778"
       inkscapeversion="0.92.4"
       ns1:alignment="middle center"
       ns1:scale="1.0"
       ns1:preamble="/home/a.brugnoli/.config/inkscape/extensions/textext/advanced_packages.tex"
       ns1:text="$L$"
       ns1:pdfconverter="pdf2svg"
       ns1:texconverter="pdflatex"
       ns1:version="0.9.1"
       transform="matrix(1.4583281,0,0,1.0403524,-116.4835,-106.80348)"
       style="stroke-width:0.28640723">
      <g
         id="g1526"
         style="stroke-width:0.28640723">
        <g
           id="g1524"
           style="fill:#000000;fill-opacity:1;stroke-width:0.28640723">
          <path
             id="path1522"
             transform="translate(148.712,134.765)"
             d="M 3.734375,-6.03125 C 3.8125,-6.390625 3.84375,-6.5 4.78125,-6.5 c 0.296875,0 0.375,0 0.375,-0.1875 0,-0.125 -0.109375,-0.125 -0.15625,-0.125 -0.328125,0 -1.140625,0.03125 -1.46875,0.03125 -0.296875,0 -1.03125,-0.03125 -1.328125,-0.03125 -0.0625,0 -0.1875,0 -0.1875,0.203125 0,0.109375 0.09375,0.109375 0.28125,0.109375 0.015625,0 0.203125,0 0.375,0.015625 0.171875,0.03125 0.265625,0.03125 0.265625,0.171875 0,0.03125 0,0.0625 -0.03125,0.1875 L 1.5625,-0.78125 c -0.09375,0.390625 -0.109375,0.46875 -0.90625,0.46875 -0.171875,0 -0.265625,0 -0.265625,0.203125 C 0.390625,0 0.484375,0 0.65625,0 h 4.625 C 5.515625,0 5.515625,0 5.578125,-0.171875 L 6.375,-2.328125 c 0.03125,-0.109375 0.03125,-0.125 0.03125,-0.140625 0,-0.03125 -0.03125,-0.109375 -0.109375,-0.109375 -0.09375,0 -0.109375,0.0625 -0.171875,0.21875 -0.34375,0.90625 -0.78125,2.046875 -2.5,2.046875 H 2.6875 c -0.140625,0 -0.171875,0 -0.21875,0 -0.109375,-0.015625 -0.140625,-0.03125 -0.140625,-0.109375 0,-0.03125 0,-0.046875 0.046875,-0.21875 z m 0,0"
             style="stroke:none;stroke-width:0"
             inkscape:connector-curvature="0" />
        </g>
      </g>
    </g>
  </g>
</svg>
